<svg height="256" viewBox="0 0 256 256" width="256" xmlns="http://www.w3.org/2000/svg"><path d="m181 189.6-18.9-31.1c3.5-12 6.2-25.6 6.2-38.7 0-1.8 0-3.5-.1-5.2-2-34.8-15.4-47.3-25.4-57.3-4.8-4.8-8.4-8.9-11-14.7a.4.4 0 0 1 -.1-.3 9.9 9.9 0 0 0 4.2-1.4 6.1 6.1 0 0 0 2.8-5.3l-.5-1.2c-.9-.9-3.3-1.3-7.1-1.5a21.4 21.4 0 0 1 0-6.7c.2-1.2.2-1.2 1.9-1.4h.3a2.4 2.4 0 0 0 2.1-1.3c.7-1.3-.2-2.9-.8-3.8v-.3l-.3-.6c-2.7-6.6-4-11.3-4-13.9s-1-4.3-1.6-4.7a1.7 1.7 0 0 0 -1.7 0c-.3.2-1.4.9-1.4 4.6 0 1.7-.7 5.5-4.1 14.1l-.2.4-.2.3a5.8 5.8 0 0 0 -1 2.8 1.9 1.9 0 0 0 .3 1 2.2 2.2 0 0 0 2 1.3h.4c1.7.2 1.7.2 1.8 1.4a30.5 30.5 0 0 1 .3 4.1 11.4 11.4 0 0 1 -.2 2.6c-3.9.2-6.3.6-7.1 1.5l-.6 1.2a6 6 0 0 0 2.9 5.3 9.5 9.5 0 0 0 4.2 1.4.4.4 0 0 0 -.1.3c-2.6 5.9-6.7 10-11.5 14.9-10 10-23.5 22.4-25.4 57.1-.1 1.7-.1 3.4-.1 5.2 0 13.1 2.7 26.7 6.2 38.7l-18.9 31.2-11.4 66.4h12.9l12.1-42.1 20.2-17h.1l.7.3 2.2.7c.4 2.1.8 4.3 1 5.7s.7 3.6 10.2 4.3v48.1h10.7v-48.1c9.9-.6 10.4-3.2 10.6-4.3s.7-3.6 1-5.7l2.3-.7.4-.2 20.1 16.9 12.1 42.1h12.9z" fill="#b4fff4"/></svg>